<?xml version="1.0" standalone="no"?>
<!DOCTYPE svg PUBLIC "-//W3C//DTD SVG 20010904//EN"
 "http://www.w3.org/TR/2001/REC-SVG-20010904/DTD/svg10.dtd">
<svg version="1.0" xmlns="http://www.w3.org/2000/svg"
 width="500.000000pt" height="500.000000pt" viewBox="0 0 500.000000 500.000000"
 preserveAspectRatio="xMidYMid meet">
<metadata>
Created by potrace 1.14, written by Peter Selinger 2001-2017
</metadata>
<g transform="translate(0.000000,500.000000) scale(0.100000,-0.100000)"
fill="#000000" stroke="none">
<path d="M992 2648 l3 -1543 23 -53 c30 -70 84 -127 152 -160 l55 -27 555 -3
555 -3 51 -24 c28 -13 65 -40 82 -61 l30 -37 39 38 c21 20 61 48 88 61 l50 23
555 3 555 3 59 30 c61 31 107 80 141 150 20 39 20 73 23 1593 l2 1552 -1510 0
-1510 0 2 -1542z m1518 1307 c0 -8 6 -14 13 -12 6 1 12 -7 12 -18 0 -16 -6
-20 -35 -19 -28 0 -35 5 -35 20 0 10 6 18 13 17 6 -2 12 4 12 12 0 8 5 15 10
15 6 0 10 -7 10 -15z m-128 -31 c8 -7 -2 -44 -12 -44 -4 0 -10 11 -12 25 -5
23 9 34 24 19z m260 -19 c-5 -28 -17 -33 -26 -9 -7 19 1 34 18 34 9 0 12 -9 8
-25z m-292 -31 c0 -23 -1 -24 -16 -9 -9 8 -13 22 -10 31 8 22 26 7 26 -22z
m90 18 c0 -4 -12 -8 -27 -9 -26 -1 -26 0 -9 13 18 13 36 11 36 -4z m236 -4 c1
-9 -4 -19 -12 -22 -10 -4 -14 2 -14 20 0 28 22 29 26 2z m-321 -79 c32 -35 42
-52 38 -68 -4 -15 -1 -21 11 -21 9 0 16 8 16 17 0 9 3 13 6 10 11 -11 14 -157
4 -157 -6 0 -10 -5 -10 -11 0 -8 4 -8 13 -1 6 5 37 10 67 10 30 0 61 -5 68
-10 8 -7 12 -7 12 1 0 6 -4 11 -9 11 -5 0 -9 34 -8 75 1 41 5 75 9 75 4 0 8
-4 8 -10 0 -5 7 -10 16 -10 11 0 13 6 9 19 -7 23 14 61 32 61 7 0 13 6 13 14
0 8 7 16 15 20 8 3 20 17 26 30 17 36 43 44 37 11 -3 -13 -1 -26 4 -27 13 -5
18 -101 6 -115 -8 -10 -7 -13 3 -13 9 0 10 -3 4 -8 -6 -4 -16 -20 -23 -35 -21
-48 -115 -76 -125 -37 -7 29 -27 25 -27 -6 0 -17 6 -28 20 -31 25 -7 28 -53 4
-53 -14 0 -14 -2 0 -15 22 -22 34 -19 51 16 17 33 41 35 59 7 8 -13 6 -22 -9
-38 -17 -18 -26 -21 -64 -15 -61 9 -69 14 -73 38 -3 24 -38 37 -38 14 0 -16
37 -51 63 -60 29 -11 19 -35 -21 -52 -32 -15 -38 -21 -34 -41 7 -38 -6 -74
-28 -74 -25 0 -32 14 -32 61 1 35 -3 41 -34 54 -36 15 -49 55 -19 55 21 0 68
47 60 60 -12 19 -35 10 -35 -13 0 -18 -9 -25 -44 -36 -49 -14 -74 -8 -53 13 8
9 19 11 34 5 15 -5 23 -4 27 7 3 8 -1 14 -9 14 -24 0 -17 33 12 56 17 14 24
26 20 37 -9 23 -27 21 -27 -3 0 -24 -21 -26 -80 -5 -60 21 -72 33 -59 56 7 14
6 19 -2 19 -7 0 -10 3 -7 6 4 3 2 19 -2 35 -5 16 -5 31 0 34 4 3 7 19 6 35 -1
19 2 29 9 26 7 -2 10 7 8 28 l-4 31 21 -25 c11 -14 40 -46 65 -71z m245 82 c0
-6 -9 -9 -20 -8 -11 1 -20 5 -20 9 0 4 9 8 20 8 11 0 20 -4 20 -9z m-137 -46
c15 -14 27 -30 27 -35 0 -15 20 -12 20 3 1 28 38 57 68 53 41 -4 51 -13 45
-37 -3 -11 -9 -17 -12 -11 -3 5 -16 11 -28 14 -19 5 -23 1 -29 -27 -3 -19 -3
-38 1 -44 4 -7 -14 -11 -55 -11 -38 0 -59 4 -55 10 3 5 3 25 0 43 -6 29 -10
33 -31 29 -13 -2 -24 -9 -25 -16 0 -6 -4 -2 -9 9 -5 14 -3 24 8 33 24 18 44
15 75 -13z m62 -132 c15 2 20 -4 20 -23 0 -29 -13 -52 -26 -44 -5 3 -17 0 -27
-5 -16 -8 -21 -6 -31 15 -10 23 -10 25 10 19 18 -6 20 -4 14 14 -7 24 4 50 14
33 3 -6 15 -10 26 -9z m-965 -324 c289 12 343 4 450 -67 34 -23 69 -42 77 -42
15 0 36 -45 47 -99 6 -33 6 -33 -17 -17 -12 9 -39 25 -60 35 l-39 19 23 16
c13 9 18 16 11 16 -7 0 -31 9 -55 20 -84 39 -227 53 -308 30 -80 -22 -92 -7
361 -460 387 -386 422 -424 418 -450 -2 -16 -1 -27 4 -24 4 3 8 25 8 49 0 38
2 43 20 38 11 -3 20 -11 20 -17 0 -7 173 162 385 374 278 278 383 390 381 404
-4 29 -30 42 -58 29 -13 -6 -42 -18 -66 -27 -24 -9 -50 -22 -59 -29 -41 -33
-63 -62 -58 -76 4 -9 -8 -27 -32 -48 -59 -51 -65 -44 -35 43 11 30 23 49 30
46 7 -2 37 19 68 47 34 32 68 53 90 57 19 3 37 10 40 15 3 5 15 9 27 10 21 0
21 1 -3 11 -53 22 -95 27 -145 16 -58 -12 -145 -64 -145 -87 0 -16 -99 -75
-109 -66 -5 5 34 90 52 113 8 10 12 10 18 1 5 -8 20 -2 51 23 139 111 245 126
321 46 30 -31 36 -43 25 -49 -10 -7 -9 -9 4 -9 30 0 58 -32 58 -66 0 -28 3
-31 25 -26 15 2 25 0 25 -7 0 -6 7 -11 15 -11 9 0 20 -11 27 -25 6 -13 23 -28
38 -34 37 -13 80 -71 80 -109 0 -47 -37 -122 -81 -165 -21 -21 -39 -47 -39
-57 0 -13 -14 -21 -60 -33 -33 -8 -60 -11 -60 -6 0 4 11 20 24 34 14 15 27 32
29 38 2 6 16 11 30 9 51 -4 102 116 83 193 -9 35 -26 27 -43 -19 -7 -21 -35
-61 -63 -88 -27 -27 -50 -53 -50 -58 0 -11 -64 -30 -99 -30 -24 0 -24 0 8 30
17 17 31 35 31 40 0 6 10 10 23 10 43 0 107 88 107 148 l0 39 -51 2 c-29 1
-55 3 -58 6 -4 2 -176 -166 -383 -373 l-376 -377 368 -367 368 -367 28 30 29
30 18 -26 19 -26 37 22 c108 65 138 78 149 67 22 -22 12 -35 -60 -78 -39 -23
-78 -47 -85 -54 -34 -27 -87 -79 -75 -72 9 5 25 -2 44 -20 17 -16 28 -24 24
-17 -9 17 25 33 70 33 106 0 179 -127 124 -217 -29 -48 -65 -67 -124 -67 -55
0 -86 16 -121 63 -24 32 -28 127 -5 141 12 8 12 11 -3 28 -9 10 -17 24 -17 31
0 23 -40 -15 -91 -85 -27 -38 -49 -73 -49 -79 0 -5 -8 -20 -18 -33 -19 -24
-52 -22 -52 4 0 14 58 124 70 134 4 3 12 15 18 26 10 19 9 23 -13 28 -31 8
-32 24 -1 58 l25 26 -349 349 -349 349 0 58 c1 31 -2 60 -6 64 -4 4 -5 -45 -1
-108 3 -63 9 -222 13 -352 6 -223 5 -238 -12 -244 -10 -4 -25 -3 -34 3 -19 12
-20 77 -7 400 l9 211 -389 -389 c-214 -214 -398 -392 -408 -395 -24 -8 -78
-66 -68 -74 13 -9 32 -49 32 -67 0 -35 -33 -99 -63 -123 -24 -19 -42 -24 -83
-24 -66 0 -100 22 -132 87 -22 47 -22 48 -5 97 11 30 29 58 47 71 38 29 117
37 149 16 21 -13 25 -13 50 9 15 13 27 29 27 36 0 7 179 192 398 411 l399 399
-430 429 c-256 256 -435 428 -443 425 -17 -7 -44 -99 -44 -151 0 -23 5 -68 11
-101 13 -68 61 -179 67 -151 5 25 19 21 34 -10 8 -16 23 -41 33 -57 l19 -29
-41 6 c-66 11 -93 24 -87 42 4 9 -2 26 -13 38 -69 75 -119 224 -109 319 15
142 18 258 7 271 -14 17 -2 30 18 20 9 -4 54 -6 101 -4z m968 -76 c21 -5 23
-10 16 -37 -9 -39 -9 -276 1 -419 6 -96 5 -110 -10 -127 -23 -26 -47 -25 -71
1 -16 18 -19 34 -16 119 2 54 7 113 12 132 13 42 13 206 1 244 -23 71 -22 82
1 87 37 7 42 7 66 0z m8 -630 c-4 -9 -2 -31 5 -50 9 -27 8 -38 -5 -58 -10 -15
-14 -35 -10 -52 7 -34 -14 -57 -41 -47 -14 6 -16 15 -11 44 4 27 2 41 -9 50
-10 8 -14 29 -12 71 l2 59 44 0 c36 0 42 -3 37 -17z m-11 -1102 c0 -38 -3 -73
-7 -77 -4 -4 -3 -13 3 -20 17 -21 7 -59 -18 -62 -30 -4 -47 28 -29 54 12 15
12 20 1 29 -10 7 -12 28 -8 78 5 64 7 67 32 67 26 0 26 -1 26 -69z m3 -231
c23 -91 25 -121 12 -146 -15 -26 -57 -33 -78 -12 -17 17 -15 72 5 151 22 84
41 86 61 7z m-3 -215 c0 -35 -31 -47 -51 -20 -18 25 0 57 29 53 17 -2 22 -10
22 -33z"/>
<path d="M2511 3484 c0 -11 3 -14 6 -6 3 7 2 16 -1 19 -3 4 -6 -2 -5 -13z"/>
<path d="M3326 3133 c-6 -14 -5 -15 5 -6 7 7 10 15 7 18 -3 3 -9 -2 -12 -12z"/>
<path d="M3305 1568 c-19 -20 -22 -27 -9 -20 23 12 61 52 48 52 -5 -1 -22 -15
-39 -32z"/>
<path d="M3240 1500 c-6 -11 -8 -20 -6 -20 3 0 10 9 16 20 6 11 8 20 6 20 -3
0 -10 -9 -16 -20z"/>
<path d="M1452 1440 c-86 -53 -51 -183 50 -183 71 0 117 76 89 147 -7 18 -8
18 -14 3 -3 -9 -14 -17 -23 -17 -12 0 -15 7 -11 25 3 18 -1 29 -14 35 -26 14
-40 12 -77 -10z"/>
<path d="M3441 1451 c-7 -5 -10 -14 -6 -20 10 -17 -13 -40 -34 -34 -23 6 -35
-34 -22 -69 11 -29 49 -63 78 -72 46 -14 123 48 123 99 0 64 -90 127 -139 96z"/>
</g>
</svg>
